<svg width="25" height="24" viewBox="0 0 25 24" fill="none" xmlns="http://www.w3.org/2000/svg">
<path d="M14.5682 18.2209C14.5682 19.5248 15.6253 20.5818 16.9292 20.5818C18.2331 20.5818 19.2901 19.5248 19.2901 18.2209C19.2901 16.917 18.2331 15.86 16.9292 15.86C15.6253 15.86 14.5682 16.917 14.5682 18.2209ZM14.5682 18.2209H10.6006C8.39154 18.2209 6.60071 16.4302 6.6006 14.2211L6.6001 4M14.1256 8.77719H6.6001M19.2901 8.77719C19.2901 10.0811 18.2331 11.1381 16.9292 11.1381C15.6253 11.1381 14.5682 10.0811 14.5682 8.77719C14.5682 7.47329 15.6253 6.41626 16.9292 6.41626C18.2331 6.41626 19.2901 7.47329 19.2901 8.77719Z" stroke="white" stroke-width="2" stroke-linecap="round"/>
</svg>
