<svg width="17" height="16" viewBox="0 0 17 16" fill="none" xmlns="http://www.w3.org/2000/svg">
<path d="M0.399902 14.9999C0.39984 15.5522 0.847505 15.9999 1.39979 16C1.95207 16.0001 2.39984 15.5524 2.3999 15.0001L0.399902 14.9999ZM1.4002 12.3747L2.4002 12.3748L1.4002 12.3747ZM9.27486 10.75C9.82715 10.75 10.2749 10.3023 10.2749 9.75C10.2749 9.19772 9.82715 8.75 9.27486 8.75V10.75ZM14.6927 12.6446C15.0832 13.0351 15.7164 13.0351 16.1069 12.6446C16.4975 12.2541 16.4975 11.6209 16.1069 11.2304L14.6927 12.6446ZM13.3227 8.44616C12.9322 8.05564 12.299 8.05563 11.9085 8.44616C11.518 8.83668 11.518 9.46985 11.9085 9.86037L13.3227 8.44616ZM11.9086 11.2303C11.5181 11.6208 11.5181 12.254 11.9086 12.6445C12.2991 13.0351 12.9323 13.0351 13.3228 12.6445L11.9086 11.2303ZM16.107 9.8603C16.4975 9.46977 16.4975 8.83661 16.107 8.44609C15.7165 8.05556 15.0833 8.05556 14.6928 8.44609L16.107 9.8603ZM10.1499 3.625H9.14986C9.14986 4.52247 8.42232 5.25 7.52487 5.25V6.25V7.25C9.5269 7.25 11.1499 5.62703 11.1499 3.625H10.1499ZM7.52487 6.25V5.25C6.62742 5.25 5.89988 4.52247 5.89988 3.625H4.89988H3.89988C3.89988 5.62703 5.52284 7.25 7.52487 7.25V6.25ZM4.89988 3.625H5.89988C5.89988 2.72753 6.62742 2 7.52487 2V1V0C5.52284 0 3.89988 1.62297 3.89988 3.625H4.89988ZM7.52487 1V2C8.42232 2 9.14986 2.72753 9.14986 3.625H10.1499H11.1499C11.1499 1.62297 9.5269 0 7.52487 0V1ZM1.3999 15L2.3999 15.0001L2.4002 12.3748L1.4002 12.3747L0.400197 12.3746L0.399902 14.9999L1.3999 15ZM4.02518 9.75V8.75C2.02331 8.75 0.400422 10.3727 0.400197 12.3746L1.4002 12.3747L2.4002 12.3748C2.4003 11.4774 3.1278 10.75 4.02518 10.75V9.75ZM4.02518 9.75V10.75H9.27486V9.75V8.75H4.02518V9.75ZM15.3998 11.9375L16.1069 11.2304L14.7148 9.83828L14.0077 10.5454L13.3006 11.2525L14.6927 12.6446L15.3998 11.9375ZM14.0077 10.5454L14.7148 9.83828L13.3227 8.44616L12.6156 9.15327L11.9085 9.86037L13.3006 11.2525L14.0077 10.5454ZM12.6157 11.9374L13.3228 12.6445L14.7148 11.2525L14.0077 10.5454L13.3006 9.83828L11.9086 11.2303L12.6157 11.9374ZM14.0077 10.5454L14.7148 11.2525L16.107 9.8603L15.3999 9.15319L14.6928 8.44609L13.3006 9.83828L14.0077 10.5454Z" fill="white"/>
</svg>
