<svg viewBox="0 0 74.492 100.25" xmlns="http://www.w3.org/2000/svg"><g transform="translate(-526.086 -245.559)"><path d="m553.264 283.782 29.888-27.1a5.163 5.163 0 0 1 3.265-1.515 4.168 4.168 0 0 1 .544.037 6.622 6.622 0 0 1 4.18 3.251c.612 1.507.268 2.693-1.416 4.88l-26.858 31.724z" fill="#fff"/><path d="m586.417 255.912a3.534 3.534 0 0 1 .448.03 5.923 5.923 0 0 1 3.581 2.791c.454 1.116.314 2.023-1.315 4.14l-26.266 31.027-8.558-10.047 29.349-26.616a4.4 4.4 0 0 1 2.761-1.321m0-1.5a5.767 5.767 0 0 0 -3.689 1.642l-.041.033-.039.035-29.348 26.612-1.077.977.943 1.107 8.558 10.046 1.146 1.345 1.141-1.348 26.266-31.022.023-.027.021-.028c1.575-2.046 2.328-3.622 1.516-5.62a7.309 7.309 0 0 0 -4.779-3.713 4.891 4.891 0 0 0 -.64-.043z"/><path d="m577.758 289.555-43.7-41.923s-1.671-2.029-3.437-2.071a4.49 4.49 0 0 0 -4.23 2.718c-.688 1.651-.194 2.809 1.315 4.97l34.775 42.2h-.017l-25.884 31.793c-1.255 1.337-2.032 3.683-1.331 5.367a4.587 4.587 0 0 0 4.287 2.841 4.087 4.087 0 0 0 3.082-1.523l35.1-32.634a7.926 7.926 0 0 0 .04-11.738z"/><path d="m595.193 345.06a4.725 4.725 0 0 1 -3.193-1.319l-44.508-42.39c-3.656-3.656-3.48-8.728.424-12.632l5.569-5.211 9.486 11.158 35.517 42.75a4.44 4.44 0 0 1 1.188 4.115 4.85 4.85 0 0 1 -3.22 3.338 4.353 4.353 0 0 1 -1.263.191z" fill="#fff"/><path d="m553.423 284.593 8.977 10.558 35.511 42.749c.873 1.093 1.419 2.186 1.047 3.418a4.092 4.092 0 0 1 -2.721 2.837 3.557 3.557 0 0 1 -1.045.159 4 4 0 0 1 -2.687-1.124l-44.495-42.382c-3.5-3.5-2.971-8.151.436-11.558zm.124-2.17-1.147 1.077-4.976 4.656c-4.192 4.191-4.372 9.816-.473 13.714l44.521 42.4a5.485 5.485 0 0 0 3.722 1.538 5.1 5.1 0 0 0 1.483-.224 5.59 5.59 0 0 0 3.719-3.838 5.175 5.175 0 0 0 -1.31-4.788l-35.53-42.767-8.988-10.571-1.019-1.2z"/></g></svg>